<?xml version="1.0" standalone="no"?>
<!DOCTYPE svg PUBLIC "-//W3C//DTD SVG 20010904//EN"
 "http://www.w3.org/TR/2001/REC-SVG-20010904/DTD/svg10.dtd">
<svg version="1.0" xmlns="http://www.w3.org/2000/svg"
 width="260.000000pt" height="260.000000pt" viewBox="0 0 260.000000 260.000000"
 preserveAspectRatio="xMidYMid meet">
<metadata>
Created by potrace 1.11, written by Peter Selinger 2001-2013
</metadata>
<g transform="translate(0.000000,260.000000) scale(0.100000,-0.100000)"
fill="#000000" stroke="none">
<path d="M269 2577 c-121 -41 -212 -134 -249 -254 -19 -63 -20 -93 -20 -1023
0 -930 1 -960 20 -1023 38 -122 135 -219 257 -257 63 -19 93 -20 1022 -20 788
0 965 3 1009 14 128 35 232 135 272 262 19 64 20 90 20 1024 0 934 -1 960 -20
1024 -40 127 -144 227 -272 262 -44 11 -221 14 -1013 14 l-960 -1 -66 -22z
m1203 -341 c345 -66 620 -306 731 -637 72 -216 59 -482 -33 -685 -38 -84 -116
-204 -133 -204 -7 0 -123 46 -258 101 -270 112 -321 125 -376 90 -64 -40 -89
-119 -59 -182 9 -19 75 -97 146 -173 71 -77 128 -142 126 -144 -17 -16 -171
-44 -268 -49 -276 -13 -512 75 -710 265 -147 141 -245 330 -278 535 -17 105
-8 290 20 392 98 364 402 635 780 698 60 10 244 6 312 -7z m353 -1566 c186
-77 349 -150 363 -162 14 -13 33 -41 43 -63 74 -161 -110 -327 -263 -237 -27
16 -519 543 -526 563 -5 13 17 39 32 39 7 0 164 -63 351 -140z"/>
<path d="M1225 1471 c-154 -71 -150 -280 7 -346 47 -19 89 -19 136 0 160 67
160 283 0 350 -49 20 -94 19 -143 -4z m109 -102 c58 -27 55 -115 -5 -139 -63
-26 -125 36 -100 99 19 44 60 60 105 40z"/>
</g>
</svg>
